<svg xmlns="http://www.w3.org/2000/svg" xmlns:xlink="http://www.w3.org/1999/xlink" width="500" zoomAndPan="magnify" viewBox="0 0 375 374.999991" height="500" preserveAspectRatio="xMidYMid meet" version="1.0"><defs><g><g id="id1"/><g id="id2"/></g><clipPath id="id3"><path d="M 93 18.75 L 265 18.75 L 265 215 L 93 215 Z M 93 18.75 " clip-rule="nonzero"/></clipPath></defs><g clip-path="url(#id3)"><path fill="rgb(0%, 29.019165%, 67.83905%)" d="M 238.917969 30.945312 C 238.859375 30.914062 237.222656 30.027344 237.167969 30.003906 L 238.917969 30.945312 C 229.820312 25.796875 222.324219 22.53125 211.984375 21.039062 L 213.132812 21.339844 C 206.164062 19.480469 198.539062 18.730469 191.421875 18.667969 C 191.429688 18.667969 191.441406 18.667969 191.449219 18.671875 C 191.441406 18.671875 191.425781 18.671875 191.421875 18.667969 C 191.847656 18.746094 191.921875 18.757812 192.378906 18.839844 C 192.308594 20.953125 192.289062 21.394531 173.941406 34.3125 C 170.347656 36.835938 166.773438 39.382812 163.242188 41.953125 C 162.003906 38.515625 161.296875 34.679688 162.28125 31.15625 C 171.0625 26.636719 182.429688 21.566406 191.417969 18.667969 C 191.417969 18.667969 191.414062 18.667969 191.414062 18.667969 C 191.414062 18.667969 191.421875 18.667969 191.421875 18.667969 C 190.449219 18.699219 189.757812 18.734375 189.410156 18.753906 C 187.917969 18.847656 189.878906 18.730469 191.398438 18.671875 C 186.632812 19.03125 176.269531 22.058594 164.019531 27.542969 C 164.019531 27.539062 164.023438 27.539062 164.023438 27.535156 C 165.917969 24.917969 169.097656 22.761719 173.902344 21.21875 C 179.832031 19.816406 184.941406 19.085938 188.695312 18.800781 C 172.433594 19.816406 156.074219 24.78125 141.875 32.660156 C 131.9375 38.175781 124.152344 44.355469 116.183594 53.914062 C 116.195312 53.898438 116.207031 53.886719 116.21875 53.875 C 116.207031 53.886719 116.195312 53.898438 116.1875 53.914062 C 111.828125 59.554688 108.769531 65.152344 106.851562 70.71875 C 102.902344 76.273438 99.695312 82.238281 97.550781 88.601562 C 92.503906 105.515625 93.140625 117.027344 96.140625 127.167969 C 95.644531 134.632812 96.75 142.496094 98.464844 147.652344 C 100.082031 152.519531 102.128906 157.347656 104.523438 161.941406 C 105.121094 162.851562 108.324219 169.613281 116.855469 178.242188 C 121.0625 185.367188 126.929688 190.902344 133.574219 195.773438 C 136.535156 197.945312 139.625 199.957031 142.824219 201.792969 C 142.796875 201.773438 142.765625 201.757812 142.742188 201.738281 C 155.042969 208.785156 167.390625 212.089844 181.214844 213.929688 C 184.640625 214.429688 189.101562 214.683594 191.417969 214.683594 C 191.1875 214.671875 190.957031 214.65625 190.722656 214.632812 C 190.800781 214.644531 190.878906 214.648438 190.957031 214.660156 C 184.351562 214.375 179.53125 213.386719 176.160156 211.84375 L 176.152344 211.84375 C 171.316406 209.648438 168.996094 206.105469 169.769531 200.964844 C 177.148438 205.28125 184.496094 209.636719 191.417969 214.683594 C 191.417969 214.683594 191.417969 214.683594 191.421875 214.683594 C 191.421875 214.683594 191.421875 214.683594 191.425781 214.683594 C 191.433594 214.683594 191.441406 214.683594 191.445312 214.683594 C 191.390625 214.6875 203.761719 214.875 213.320312 212.222656 C 213.554688 212.222656 218.730469 210.964844 223.601562 209.269531 C 271.398438 191.636719 258.605469 156.925781 235.207031 126.277344 C 263.445312 93.597656 282.335938 56.019531 238.917969 30.945312 Z M 197.914062 19.023438 C 256.789062 23.753906 221.953125 66.476562 201.019531 88.601562 C 182.148438 69.800781 186.148438 73.527344 182.820312 70.070312 C 199.878906 53.738281 231.617188 22.605469 197.757812 19.007812 C 197.757812 19.007812 197.914062 19.023438 197.914062 19.023438 Z M 200.890625 146.429688 C 198 143.273438 194.886719 140 191.558594 136.625 C 188.492188 133.511719 185.113281 130.089844 181.582031 126.429688 C 185.621094 122.027344 189.46875 118 192.777344 114.535156 C 195.746094 111.425781 198.605469 108.417969 201.34375 105.496094 C 207.625 112.023438 214.199219 119.113281 220.375 126.441406 C 213.75 133.640625 207.003906 140.398438 200.890625 146.429688 Z M 145.757812 178.859375 C 146.015625 178.203125 147.441406 172.234375 153.5625 162.097656 C 159.285156 167.484375 165.304688 172.941406 171.496094 178.472656 C 170.667969 179.746094 166.054688 185.835938 163.761719 192.453125 C 157.382812 187.855469 151.367188 183.332031 145.757812 178.859375 Z M 137.945312 192.199219 C 128.050781 185.691406 122.769531 180.550781 121.230469 179.269531 C 118.777344 173.820312 117.824219 168.132812 118.113281 162.273438 C 121.726562 166.070312 127.621094 171.828125 136.335938 178.800781 C 136.328125 179.703125 135.289062 185.714844 137.945312 192.199219 Z M 111.128906 70.0625 C 116.097656 64.011719 121.789062 58.492188 127.796875 53.515625 C 127.75 54.660156 126.304688 60.230469 128.789062 69.917969 C 122.390625 76 116.628906 82.257812 111.785156 88.742188 C 110.304688 82.429688 110.003906 76.195312 111.128906 70.0625 Z M 168.726562 69.933594 C 162.847656 75.371094 156.191406 81.65625 149.546875 88.542969 C 142.15625 77.71875 139.324219 70.4375 139.152344 70.097656 C 145.21875 64.457031 151.652344 58.957031 158.203125 53.605469 C 158.757812 54.566406 161.242188 60.15625 168.726562 69.933594 Z M 189.648438 93.535156 C 190.730469 94.625 191.839844 95.753906 192.96875 96.902344 C 187.269531 102.699219 180.320312 109.804688 173.269531 117.628906 C 162.527344 105.96875 155.863281 97.203125 155.816406 97.144531 C 161.898438 90.59375 168.375 84.074219 174.96875 77.640625 C 176.125 78.941406 180.703125 84.464844 189.648438 93.535156 Z M 150.203125 146.632812 C 143.625 139.882812 137.523438 133.121094 132.171875 126.382812 C 136.691406 119.566406 142.085938 112.683594 148.046875 105.796875 C 148.328125 106.140625 154.136719 114.179688 165.515625 126.5 C 160.035156 133 154.742188 139.804688 150.203125 146.632812 Z M 131.34375 77.65625 C 131.652344 78.300781 134.164062 85.488281 141.746094 96.933594 C 141.746094 96.933594 141.746094 96.9375 141.75 96.9375 C 135.929688 103.476562 130.359375 110.40625 125.605469 117.550781 C 120.917969 110.769531 117.121094 104.019531 114.5 97.335938 C 119.3125 90.601562 125.035156 84.039062 131.34375 77.65625 Z M 120.398438 126.097656 C 116.691406 132.804688 113.867188 139.628906 112.351562 146.433594 C 107.324219 139.945312 103.359375 133.40625 100.5625 126.714844 C 102.109375 119.695312 104.957031 112.839844 108.808594 106.152344 C 111.5625 112.769531 115.511719 119.40625 120.398438 126.097656 Z M 119.179688 154.527344 C 120.609375 148.054688 123.359375 141.40625 127.117188 134.65625 C 132.535156 141.132812 138.71875 147.664062 145.445312 154.285156 C 139.421875 164.773438 138.175781 170.691406 137.636719 172.164062 C 130.703125 166.25 124.523438 160.394531 119.179688 154.527344 Z M 176.585938 171.882812 C 170.351562 166.207031 164.214844 160.488281 158.335938 154.761719 C 162.988281 148.046875 168.363281 141.398438 173.738281 135.191406 C 178.464844 140.058594 182.925781 144.457031 186.746094 148.222656 C 188.585938 150.042969 190.667969 152.097656 192.871094 154.324219 C 187.996094 159.167969 181.980469 165.335938 176.585938 171.882812 Z M 191.433594 18.667969 C 191.449219 18.667969 191.464844 18.667969 191.480469 18.671875 C 221.957031 20.054688 200.734375 40.53125 176.46875 62.824219 C 172.230469 57.734375 168.429688 52.515625 165.757812 47.535156 C 187.710938 30.128906 202.597656 19.648438 191.433594 18.667969 Z M 155.648438 47.558594 C 149.007812 52.554688 142.59375 57.644531 136.578125 62.859375 C 136.3125 61.464844 134.132812 54.984375 135.402344 47.601562 C 141.660156 43.027344 148.074219 39 154.21875 35.515625 C 153.605469 38.992188 154.082031 43.003906 155.648438 47.558594 Z M 162.300781 24.558594 C 159.089844 26.457031 156.808594 28.820312 155.453125 31.644531 C 149.335938 34.761719 142.988281 38.429688 136.796875 42.617188 C 137.242188 41.820312 138.714844 37.046875 144.792969 32.070312 C 150.769531 28.929688 156.707031 26.46875 162.300781 24.558594 Z M 122.609375 47.492188 C 127.324219 43.203125 132.289062 39.515625 137.328125 36.363281 C 133.511719 39.945312 130.894531 43.859375 129.304688 48.023438 C 123.496094 52.496094 117.992188 57.441406 113.144531 62.859375 C 115.113281 57.648438 118.21875 52.519531 122.609375 47.492188 Z M 96.070312 97.222656 C 98.109375 90.589844 101.144531 84.378906 104.886719 78.589844 C 103.894531 84.914062 104.304688 91.210938 105.898438 97.511719 C 102.046875 104.003906 99.175781 110.71875 97.546875 117.695312 C 95.871094 111.078125 95.347656 104.28125 96.070312 97.222656 Z M 101.648438 154.390625 C 99.699219 148.03125 98.988281 141.789062 99.328125 135.667969 C 101.933594 141.398438 105.722656 147.699219 111.195312 154.441406 C 110.839844 160.253906 111.574219 166.011719 113.679688 171.617188 C 112.648438 170.332031 106.710938 164.105469 101.648438 154.390625 Z M 147.660156 203.734375 C 144.09375 201.996094 140.441406 199.984375 136.777344 197.65625 C 131.59375 193.742188 127.597656 189.621094 124.652344 185.339844 C 129.457031 189.277344 134.640625 192.859375 139.972656 196.058594 C 142.003906 199.179688 145.277344 202.230469 147.660156 203.734375 Z M 179.265625 213.625 C 165.636719 211.535156 156.332031 207.449219 155.609375 207.222656 C 152.1875 205.269531 149.625 202.992188 147.808594 200.445312 C 154.375 203.878906 160.980469 206.734375 167.1875 208.96875 C 169.867188 211.046875 173.804688 212.648438 179.265625 213.625 Z M 164.703125 206.464844 C 158.792969 203.949219 152.375 200.835938 145.890625 197.101562 C 144.273438 193.445312 143.875 189.367188 144.429688 185.007812 C 150.375 189.371094 156.269531 193.015625 162.671875 196.804688 C 162.671875 197.613281 161.558594 202.21875 164.703125 206.464844 Z M 170.714844 197.394531 C 172.851562 191.578125 177.472656 186.050781 178.460938 184.671875 C 192.523438 197.144531 211.210938 212.898438 192.578125 214.59375 C 192.007812 212.632812 182.007812 205.316406 170.714844 197.394531 Z M 191.425781 214.679688 C 191.558594 214.628906 191.730469 214.632812 191.902344 214.648438 C 191.769531 214.65625 191.511719 214.675781 191.425781 214.679688 Z M 191.949219 214.652344 C 191.964844 214.652344 191.980469 214.65625 192 214.65625 C 191.445312 214.6875 191.320312 214.6875 191.949219 214.652344 Z M 192.597656 214.636719 C 192.597656 214.628906 192.59375 214.628906 192.589844 214.621094 C 218.75 213.023438 201.027344 194.371094 183.773438 178.445312 C 184.964844 177.230469 186.886719 174.734375 198.785156 163.386719 C 199.265625 162.929688 199.746094 162.46875 200.238281 162 C 219.960938 183.355469 239.863281 212.582031 192.597656 214.636719 Z M 216.042969 211.371094 C 236.578125 204.152344 233.910156 185.125 208.035156 154.53125 C 214.320312 148.449219 220.933594 141.898438 227.324219 135.035156 C 251.015625 165.730469 263.410156 198.480469 216.042969 211.371094 Z M 209.269531 96.894531 C 227.433594 76.75 238.542969 60.796875 238.320312 45.296875 C 238.183594 35.75 230.359375 26.078125 213.613281 21.464844 C 220.019531 23.195312 222.148438 23.519531 225.742188 24.933594 C 228.523438 26.066406 232.660156 27.695312 236.390625 29.585938 C 236.308594 29.546875 236.226562 29.503906 236.140625 29.46875 C 236.140625 29.46875 236.140625 29.460938 236.136719 29.460938 C 233.179688 28.085938 229.480469 26.457031 226.179688 25.109375 C 276.355469 45.929688 256.261719 84.84375 228.234375 117.609375 C 222.015625 110.214844 215.433594 103.203125 209.269531 96.894531 Z M 209.269531 96.894531 " fill-opacity="1" fill-rule="nonzero"/></g><g fill="rgb(0%, 0%, 0%)" fill-opacity="1"><g transform="translate(15.998092, 293.680374)"><g><path d="M 36.953125 -58.5 C 35.421875 -60.550781 32.15625 -61.578125 27.15625 -61.578125 C 22.15625 -61.578125 18.703125 -59.90625 16.796875 -56.5625 C 16.148438 -55.414062 15.828125 -54.007812 15.828125 -52.34375 C 15.828125 -49.257812 17.207031 -46.441406 19.96875 -43.890625 C 21.789062 -42.191406 24.304688 -40.445312 27.515625 -38.65625 C 30.722656 -36.875 33.425781 -35.28125 35.625 -33.875 C 43.925781 -28.59375 48.078125 -22.8125 48.078125 -16.53125 C 48.078125 -10.96875 46.03125 -6.675781 41.9375 -3.65625 C 37.84375 -0.632812 32.546875 0.875 26.046875 0.875 C 19.554688 0.875 14.351562 -0.40625 10.4375 -2.96875 C 6.53125 -5.53125 4.578125 -8.472656 4.578125 -11.796875 C 4.578125 -15.128906 5.910156 -17.382812 8.578125 -18.5625 C 9.398438 -18.9375 10.296875 -19.125 11.265625 -19.125 C 13.109375 -19.125 14.625 -18.507812 15.8125 -17.28125 C 17 -16.050781 17.59375 -14.5 17.59375 -12.625 C 17.59375 -10.75 16.742188 -9.148438 15.046875 -7.828125 C 17.328125 -5.535156 21.113281 -4.390625 26.40625 -4.390625 C 31.695312 -4.390625 35.328125 -6.179688 37.296875 -9.765625 C 38.003906 -10.992188 38.359375 -12.429688 38.359375 -14.078125 C 38.359375 -16.921875 36.890625 -19.554688 33.953125 -21.984375 C 32.429688 -23.253906 29.859375 -24.890625 26.234375 -26.890625 C 22.609375 -28.898438 19.757812 -30.582031 17.6875 -31.9375 C 10.03125 -36.863281 6.203125 -42.664062 6.203125 -49.34375 C 6.203125 -54.5625 8.171875 -58.785156 12.109375 -62.015625 C 16.054688 -65.242188 20.941406 -66.859375 26.765625 -66.859375 C 32.585938 -66.859375 37.363281 -65.609375 41.09375 -63.109375 C 44.832031 -60.617188 46.703125 -57.585938 46.703125 -54.015625 C 46.703125 -52.078125 46.109375 -50.453125 44.921875 -49.140625 C 43.734375 -47.835938 42.234375 -47.1875 40.421875 -47.1875 C 37.640625 -47.1875 35.703125 -48.40625 34.609375 -50.84375 C 34.285156 -51.570312 34.125 -52.347656 34.125 -53.171875 C 34.125 -55.429688 35.066406 -57.207031 36.953125 -58.5 Z M 36.953125 -58.5 "/></g></g></g><g fill="rgb(0%, 0%, 0%)" fill-opacity="1"><g transform="translate(68.198795, 293.680374)"><g><path d="M 3.609375 -4.84375 C 6.359375 -4.84375 8.160156 -5.113281 9.015625 -5.65625 C 9.867188 -6.195312 10.410156 -6.773438 10.640625 -7.390625 C 10.878906 -8.003906 11 -8.75 11 -9.625 L 11 -56.34375 C 11 -58.25 10.675781 -59.4375 10.03125 -59.90625 C 8.851562 -60.726562 6.710938 -61.140625 3.609375 -61.140625 L 3.609375 -65.96875 L 24.359375 -65.96875 L 43.84375 -15.09375 L 62.546875 -65.96875 L 83.078125 -65.96875 L 83.078125 -61.140625 C 80.296875 -61.140625 78.476562 -60.867188 77.625 -60.328125 C 76.78125 -59.785156 76.238281 -59.203125 76 -58.578125 C 75.769531 -57.960938 75.65625 -57.21875 75.65625 -56.34375 L 75.65625 -9.625 C 75.65625 -7.75 75.988281 -6.5625 76.65625 -6.0625 C 77.832031 -5.25 79.972656 -4.84375 83.078125 -4.84375 L 83.078125 0 L 58.671875 0 L 58.671875 -4.84375 C 61.429688 -4.84375 63.210938 -5.113281 64.015625 -5.65625 C 64.828125 -6.195312 65.332031 -6.773438 65.53125 -7.390625 C 65.738281 -8.003906 65.84375 -8.75 65.84375 -9.625 L 65.84375 -56.5625 L 45.4375 0 L 40.546875 0 L 18.03125 -56.609375 L 18.03125 -9.625 C 18.03125 -7.726562 18.351562 -6.539062 19 -6.0625 C 20.175781 -5.25 22.316406 -4.84375 25.421875 -4.84375 L 25.421875 0 L 3.609375 0 Z M 3.609375 -4.84375 "/></g></g></g><g fill="rgb(0%, 0%, 0%)" fill-opacity="1"><g transform="translate(154.833491, 293.680374)"><g><path d="M -0.484375 -4.84375 C 1.953125 -4.84375 3.789062 -5.210938 5.03125 -5.953125 C 6.28125 -6.703125 7.242188 -7.925781 7.921875 -9.625 L 31.671875 -65.96875 L 39.1875 -65.96875 L 60.921875 -9.625 C 61.710938 -7.75 62.585938 -6.484375 63.546875 -5.828125 C 64.515625 -5.171875 66.410156 -4.84375 69.234375 -4.84375 L 69.234375 0 L 42.09375 0 L 42.09375 -4.84375 C 45.957031 -4.84375 48.25 -5.101562 48.96875 -5.625 C 49.6875 -6.15625 50.023438 -6.726562 49.984375 -7.34375 C 49.941406 -7.957031 49.742188 -8.71875 49.390625 -9.625 L 45.4375 -20.671875 L 19.875 -20.671875 L 15.34375 -9.625 C 14.675781 -7.875 14.882812 -6.640625 15.96875 -5.921875 C 17.050781 -5.203125 19.585938 -4.84375 23.578125 -4.84375 L 23.578125 0 L -0.484375 0 Z M 43.71875 -25.515625 L 33.515625 -54.015625 L 21.859375 -25.515625 Z M 43.71875 -25.515625 "/></g></g></g><g fill="rgb(0%, 0%, 0%)" fill-opacity="1"><g transform="translate(224.361132, 293.680374)"><g><path d="M 35.09375 -4.84375 C 44.332031 -4.84375 50.171875 -9.09375 52.609375 -17.59375 L 58.9375 -17.59375 C 58.9375 -15.300781 58.320312 -13.046875 57.09375 -10.828125 C 55.863281 -8.617188 54.132812 -6.648438 51.90625 -4.921875 C 46.976562 -1.054688 40.640625 0.875 32.890625 0.875 C 25.148438 0.875 18.523438 -1.703125 13.015625 -6.859375 C 6.628906 -12.816406 3.4375 -21.523438 3.4375 -32.984375 C 3.4375 -42.128906 5.894531 -49.84375 10.8125 -56.125 C 14.300781 -60.613281 18.953125 -63.734375 24.765625 -65.484375 C 27.753906 -66.398438 31.035156 -66.859375 34.609375 -66.859375 C 41.679688 -66.859375 47.488281 -65.238281 52.03125 -62 C 56.570312 -58.757812 58.84375 -54.691406 58.84375 -49.796875 C 58.84375 -46.128906 57.410156 -43.664062 54.546875 -42.40625 C 53.691406 -42.019531 52.765625 -41.828125 51.765625 -41.828125 C 48.691406 -41.828125 46.625 -43.132812 45.5625 -45.75 C 45.238281 -46.5625 45.078125 -47.53125 45.078125 -48.65625 C 45.078125 -49.789062 45.398438 -50.90625 46.046875 -52 C 46.691406 -53.101562 47.546875 -53.953125 48.609375 -54.546875 C 46.234375 -59.085938 41.976562 -61.359375 35.84375 -61.359375 C 29.71875 -61.359375 24.734375 -59.035156 20.890625 -54.390625 C 17.046875 -49.742188 15.125 -42.765625 15.125 -33.453125 C 15.125 -24.140625 17.070312 -17.039062 20.96875 -12.15625 C 24.875 -7.28125 29.582031 -4.84375 35.09375 -4.84375 Z M 35.09375 -4.84375 "/></g></g></g><g fill="rgb(0%, 0%, 0%)" fill-opacity="1"><g transform="translate(289.930843, 293.680374)"><g><path d="M 3.4375 -32.984375 C 3.4375 -38.554688 4.285156 -43.503906 5.984375 -47.828125 C 7.679688 -52.148438 9.96875 -55.722656 12.84375 -58.546875 C 18.5 -64.085938 25.722656 -66.859375 34.515625 -66.859375 C 43.316406 -66.859375 50.546875 -64.128906 56.203125 -58.671875 C 62.484375 -52.660156 65.625 -44.171875 65.625 -33.203125 C 65.625 -22.234375 62.742188 -13.8125 56.984375 -7.9375 C 51.222656 -2.0625 43.738281 0.875 34.53125 0.875 C 25.351562 0.875 17.875 -2.097656 12.09375 -8.046875 C 6.320312 -14.003906 3.4375 -22.316406 3.4375 -32.984375 Z M 34.65625 -4.84375 C 39.789062 -4.84375 44.101562 -6.75 47.59375 -10.5625 C 51.988281 -15.363281 54.1875 -22.675781 54.1875 -32.5 C 54.1875 -42.320312 52.304688 -49.550781 48.546875 -54.1875 C 44.796875 -58.820312 40.078125 -61.140625 34.390625 -61.140625 C 28.734375 -61.140625 24.0625 -58.828125 20.375 -54.203125 C 16.695312 -49.585938 14.859375 -42.660156 14.859375 -33.421875 C 14.859375 -20.140625 18.5 -11.390625 25.78125 -7.171875 C 28.445312 -5.617188 31.40625 -4.84375 34.65625 -4.84375 Z M 34.65625 -4.84375 "/></g></g></g><g fill="rgb(0%, 0%, 0%)" fill-opacity="1"><g transform="translate(50.122217, 349.782905)"><g><path d="M 12.25 -1.6875 C 15.476562 -1.6875 17.519531 -3.171875 18.375 -6.140625 L 20.578125 -6.140625 C 20.578125 -5.335938 20.363281 -4.550781 19.9375 -3.78125 C 19.507812 -3.007812 18.90625 -2.320312 18.125 -1.71875 C 16.40625 -0.363281 14.191406 0.3125 11.484375 0.3125 C 8.785156 0.3125 6.472656 -0.585938 4.546875 -2.390625 C 2.316406 -4.472656 1.203125 -7.515625 1.203125 -11.515625 C 1.203125 -14.710938 2.0625 -17.40625 3.78125 -19.59375 C 5 -21.164062 6.617188 -22.257812 8.640625 -22.875 C 9.691406 -23.1875 10.84375 -23.34375 12.09375 -23.34375 C 14.550781 -23.34375 16.570312 -22.773438 18.15625 -21.640625 C 19.75 -20.515625 20.546875 -19.097656 20.546875 -17.390625 C 20.546875 -16.109375 20.046875 -15.25 19.046875 -14.8125 C 18.742188 -14.675781 18.421875 -14.609375 18.078125 -14.609375 C 17.003906 -14.609375 16.28125 -15.0625 15.90625 -15.96875 C 15.789062 -16.257812 15.734375 -16.597656 15.734375 -16.984375 C 15.734375 -17.378906 15.847656 -17.769531 16.078125 -18.15625 C 16.304688 -18.539062 16.601562 -18.835938 16.96875 -19.046875 C 16.144531 -20.628906 14.660156 -21.421875 12.515625 -21.421875 C 10.378906 -21.421875 8.640625 -20.609375 7.296875 -18.984375 C 5.953125 -17.367188 5.28125 -14.929688 5.28125 -11.671875 C 5.28125 -8.421875 5.960938 -5.941406 7.328125 -4.234375 C 8.691406 -2.535156 10.332031 -1.6875 12.25 -1.6875 Z M 12.25 -1.6875 "/></g></g></g><g fill="rgb(0%, 0%, 0%)" fill-opacity="1"><g transform="translate(79.534067, 349.782905)"><g><path d="M 1.203125 -11.515625 C 1.203125 -13.460938 1.5 -15.191406 2.09375 -16.703125 C 2.6875 -18.210938 3.484375 -19.457031 4.484375 -20.4375 C 6.460938 -22.375 8.984375 -23.34375 12.046875 -23.34375 C 15.117188 -23.34375 17.644531 -22.390625 19.625 -20.484375 C 21.820312 -18.390625 22.921875 -15.425781 22.921875 -11.59375 C 22.921875 -7.757812 21.910156 -4.816406 19.890625 -2.765625 C 17.878906 -0.710938 15.269531 0.3125 12.0625 0.3125 C 8.851562 0.3125 6.238281 -0.722656 4.21875 -2.796875 C 2.207031 -4.878906 1.203125 -7.785156 1.203125 -11.515625 Z M 12.109375 -1.6875 C 13.898438 -1.6875 15.40625 -2.351562 16.625 -3.6875 C 18.15625 -5.363281 18.921875 -7.914062 18.921875 -11.34375 C 18.921875 -14.78125 18.265625 -17.304688 16.953125 -18.921875 C 15.640625 -20.535156 13.992188 -21.34375 12.015625 -21.34375 C 10.035156 -21.34375 8.398438 -20.535156 7.109375 -18.921875 C 5.828125 -17.316406 5.1875 -14.898438 5.1875 -11.671875 C 5.1875 -7.035156 6.457031 -3.976562 9 -2.5 C 9.925781 -1.957031 10.960938 -1.6875 12.109375 -1.6875 Z M 12.109375 -1.6875 "/></g></g></g><g fill="rgb(0%, 0%, 0%)" fill-opacity="1"><g transform="translate(110.159202, 349.782905)"><g><path d="M 1.03125 -1.71875 C 2.03125 -1.71875 2.675781 -1.8125 2.96875 -2 C 3.269531 -2.195312 3.460938 -2.40625 3.546875 -2.625 C 3.640625 -2.851562 3.6875 -3.117188 3.6875 -3.421875 L 3.6875 -19.609375 C 3.6875 -20.273438 3.5625 -20.695312 3.3125 -20.875 C 2.90625 -21.164062 2.144531 -21.3125 1.03125 -21.3125 L 1.03125 -23.03125 L 6.328125 -23.03125 L 19.5 -6.3125 L 19.5 -19.609375 C 19.5 -20.285156 19.382812 -20.707031 19.15625 -20.875 C 18.738281 -21.164062 17.976562 -21.3125 16.875 -21.3125 L 16.875 -23.03125 L 24.625 -23.03125 L 24.625 -21.3125 C 23.613281 -21.3125 22.957031 -21.210938 22.65625 -21.015625 C 22.363281 -20.828125 22.175781 -20.625 22.09375 -20.40625 C 22.007812 -20.1875 21.96875 -19.921875 21.96875 -19.609375 L 21.96875 0 L 20.078125 0 L 6.140625 -17.671875 L 6.140625 -3.421875 C 6.140625 -2.753906 6.265625 -2.335938 6.515625 -2.171875 C 6.921875 -1.867188 7.6875 -1.71875 8.8125 -1.71875 L 8.8125 0 L 1.03125 0 Z M 1.03125 -1.71875 "/></g></g></g><g fill="rgb(0%, 0%, 0%)" fill-opacity="1"><g transform="translate(142.012993, 349.782905)"><g><path d="M 12.90625 -20.421875 C 12.375 -21.140625 11.234375 -21.5 9.484375 -21.5 C 7.734375 -21.5 6.523438 -20.914062 5.859375 -19.75 C 5.640625 -19.351562 5.53125 -18.863281 5.53125 -18.28125 C 5.53125 -17.195312 6.007812 -16.210938 6.96875 -15.328125 C 7.601562 -14.734375 8.476562 -14.125 9.59375 -13.5 C 10.71875 -12.875 11.664062 -12.316406 12.4375 -11.828125 C 15.332031 -9.984375 16.78125 -7.96875 16.78125 -5.78125 C 16.78125 -3.832031 16.066406 -2.328125 14.640625 -1.265625 C 13.210938 -0.210938 11.363281 0.3125 9.09375 0.3125 C 6.832031 0.3125 5.015625 -0.132812 3.640625 -1.03125 C 2.273438 -1.925781 1.59375 -2.953125 1.59375 -4.109375 C 1.59375 -5.273438 2.0625 -6.066406 3 -6.484375 C 3.28125 -6.617188 3.59375 -6.6875 3.9375 -6.6875 C 4.582031 -6.6875 5.109375 -6.46875 5.515625 -6.03125 C 5.929688 -5.601562 6.140625 -5.0625 6.140625 -4.40625 C 6.140625 -3.75 5.84375 -3.191406 5.25 -2.734375 C 6.050781 -1.929688 7.375 -1.53125 9.21875 -1.53125 C 11.070312 -1.53125 12.34375 -2.15625 13.03125 -3.40625 C 13.269531 -3.832031 13.390625 -4.335938 13.390625 -4.921875 C 13.390625 -5.910156 12.878906 -6.828125 11.859375 -7.671875 C 11.328125 -8.117188 10.425781 -8.691406 9.15625 -9.390625 C 7.894531 -10.085938 6.898438 -10.675781 6.171875 -11.15625 C 3.503906 -12.875 2.171875 -14.898438 2.171875 -17.234375 C 2.171875 -19.054688 2.859375 -20.53125 4.234375 -21.65625 C 5.609375 -22.78125 7.3125 -23.34375 9.34375 -23.34375 C 11.375 -23.34375 13.039062 -22.90625 14.34375 -22.03125 C 15.65625 -21.164062 16.3125 -20.109375 16.3125 -18.859375 C 16.3125 -18.179688 16.101562 -17.613281 15.6875 -17.15625 C 15.269531 -16.707031 14.742188 -16.484375 14.109375 -16.484375 C 13.140625 -16.484375 12.46875 -16.90625 12.09375 -17.75 C 11.976562 -18.007812 11.921875 -18.28125 11.921875 -18.5625 C 11.921875 -19.351562 12.25 -19.972656 12.90625 -20.421875 Z M 12.90625 -20.421875 "/></g></g></g><g fill="rgb(0%, 0%, 0%)" fill-opacity="1"><g transform="translate(166.755947, 349.782905)"><g><path d="M 12.515625 -1.9375 C 16.578125 -1.9375 18.609375 -4.457031 18.609375 -9.5 L 18.609375 -19.671875 C 18.609375 -20.335938 18.5 -20.753906 18.28125 -20.921875 C 17.863281 -21.203125 17.113281 -21.34375 16.03125 -21.34375 L 16.03125 -23.03125 L 23.828125 -23.03125 L 23.828125 -21.34375 C 22.859375 -21.34375 22.222656 -21.25 21.921875 -21.0625 C 21.628906 -20.875 21.441406 -20.671875 21.359375 -20.453125 C 21.273438 -20.242188 21.234375 -19.984375 21.234375 -19.671875 L 21.25 -9.671875 C 21.25 -4.648438 19.46875 -1.519531 15.90625 -0.28125 C 14.769531 0.113281 13.675781 0.3125 12.625 0.3125 C 11.570312 0.3125 10.6875 0.234375 9.96875 0.078125 C 9.257812 -0.0664062 8.578125 -0.300781 7.921875 -0.625 C 6.492188 -1.34375 5.351562 -2.425781 4.5 -3.875 C 3.644531 -5.332031 3.21875 -7.210938 3.21875 -9.515625 L 3.21875 -19.671875 C 3.21875 -20.328125 3.109375 -20.742188 2.890625 -20.921875 C 2.503906 -21.203125 1.804688 -21.34375 0.796875 -21.34375 L 0.796875 -23.03125 L 9.40625 -23.03125 L 9.40625 -21.34375 C 8.363281 -21.34375 7.6875 -21.25 7.375 -21.0625 C 7.0625 -20.875 6.863281 -20.671875 6.78125 -20.453125 C 6.695312 -20.242188 6.65625 -19.984375 6.65625 -19.671875 L 6.65625 -9.203125 C 6.65625 -6.734375 7.210938 -4.90625 8.328125 -3.71875 C 9.441406 -2.53125 10.835938 -1.9375 12.515625 -1.9375 Z M 12.515625 -1.9375 "/></g></g></g><g fill="rgb(0%, 0%, 0%)" fill-opacity="1"><g transform="translate(197.887909, 349.782905)"><g><path d="M 1.109375 -1.6875 C 2.078125 -1.6875 2.707031 -1.78125 3 -1.96875 C 3.300781 -2.15625 3.492188 -2.359375 3.578125 -2.578125 C 3.660156 -2.796875 3.703125 -3.054688 3.703125 -3.359375 L 3.6875 -19.671875 C 3.6875 -20.335938 3.570312 -20.753906 3.34375 -20.921875 C 2.9375 -21.203125 2.191406 -21.34375 1.109375 -21.34375 L 1.109375 -23.03125 L 9.75 -23.03125 L 9.75 -21.34375 C 8.78125 -21.34375 8.144531 -21.25 7.84375 -21.0625 C 7.550781 -20.875 7.363281 -20.671875 7.28125 -20.453125 C 7.195312 -20.242188 7.15625 -19.984375 7.15625 -19.671875 L 7.15625 -1.78125 L 12.453125 -1.78125 C 14.085938 -1.78125 15.210938 -2.675781 15.828125 -4.46875 L 16.453125 -6.203125 L 18.5625 -6.1875 L 17.515625 0 L 1.109375 0 Z M 1.109375 -1.6875 "/></g></g></g><g fill="rgb(0%, 0%, 0%)" fill-opacity="1"><g transform="translate(223.997722, 349.782905)"><g><path d="M 5.640625 -1.6875 C 6.796875 -1.6875 7.5625 -1.78125 7.9375 -1.96875 C 8.320312 -2.15625 8.566406 -2.359375 8.671875 -2.578125 C 8.785156 -2.796875 8.84375 -3.054688 8.84375 -3.359375 L 8.84375 -21.25 L 5.703125 -21.25 C 4.003906 -21.25 3.035156 -20.351562 2.796875 -18.5625 L 2.34375 -15.453125 L 0.125 -15.46875 L 0.796875 -23.03125 L 20.34375 -23.03125 L 21.03125 -15.46875 L 18.796875 -15.453125 L 18.359375 -18.5625 C 18.242188 -19.394531 18.019531 -19.984375 17.6875 -20.328125 C 17.09375 -20.941406 16.347656 -21.25 15.453125 -21.25 L 12.296875 -21.25 L 12.296875 -3.359375 C 12.296875 -2.710938 12.507812 -2.269531 12.9375 -2.03125 C 13.363281 -1.800781 14.222656 -1.6875 15.515625 -1.6875 L 15.515625 0 L 5.640625 0 Z M 5.640625 -1.6875 "/></g></g></g><g fill="rgb(0%, 0%, 0%)" fill-opacity="1"><g transform="translate(251.658728, 349.782905)"><g><path d="M 1.25 -1.6875 C 2.21875 -1.6875 2.847656 -1.78125 3.140625 -1.96875 C 3.441406 -2.15625 3.632812 -2.359375 3.71875 -2.578125 C 3.800781 -2.796875 3.84375 -3.054688 3.84375 -3.359375 L 3.828125 -19.671875 C 3.828125 -20.335938 3.707031 -20.753906 3.46875 -20.921875 C 3.070312 -21.203125 2.332031 -21.34375 1.25 -21.34375 L 1.25 -23.03125 L 9.875 -23.03125 L 9.875 -21.34375 C 8.90625 -21.34375 8.269531 -21.25 7.96875 -21.0625 C 7.675781 -20.875 7.488281 -20.671875 7.40625 -20.453125 C 7.320312 -20.242188 7.28125 -19.984375 7.28125 -19.671875 L 7.296875 -3.359375 C 7.296875 -2.691406 7.410156 -2.28125 7.640625 -2.125 C 8.046875 -1.832031 8.789062 -1.6875 9.875 -1.6875 L 9.875 0 L 1.25 0 Z M 1.25 -1.6875 "/></g></g></g><g fill="rgb(0%, 0%, 0%)" fill-opacity="1"><g transform="translate(269.260091, 349.782905)"><g><path d="M 1.03125 -1.71875 C 2.03125 -1.71875 2.675781 -1.8125 2.96875 -2 C 3.269531 -2.195312 3.460938 -2.40625 3.546875 -2.625 C 3.640625 -2.851562 3.6875 -3.117188 3.6875 -3.421875 L 3.6875 -19.609375 C 3.6875 -20.273438 3.5625 -20.695312 3.3125 -20.875 C 2.90625 -21.164062 2.144531 -21.3125 1.03125 -21.3125 L 1.03125 -23.03125 L 6.328125 -23.03125 L 19.5 -6.3125 L 19.5 -19.609375 C 19.5 -20.285156 19.382812 -20.707031 19.15625 -20.875 C 18.738281 -21.164062 17.976562 -21.3125 16.875 -21.3125 L 16.875 -23.03125 L 24.625 -23.03125 L 24.625 -21.3125 C 23.613281 -21.3125 22.957031 -21.210938 22.65625 -21.015625 C 22.363281 -20.828125 22.175781 -20.625 22.09375 -20.40625 C 22.007812 -20.1875 21.96875 -19.921875 21.96875 -19.609375 L 21.96875 0 L 20.078125 0 L 6.140625 -17.671875 L 6.140625 -3.421875 C 6.140625 -2.753906 6.265625 -2.335938 6.515625 -2.171875 C 6.921875 -1.867188 7.6875 -1.71875 8.8125 -1.71875 L 8.8125 0 L 1.03125 0 Z M 1.03125 -1.71875 "/></g></g></g><g fill="rgb(0%, 0%, 0%)" fill-opacity="1"><g transform="translate(301.113875, 349.782905)"><g><path d="M 2.828125 -4.640625 C 2.316406 -5.515625 1.914062 -6.523438 1.625 -7.671875 C 1.34375 -8.816406 1.203125 -9.984375 1.203125 -11.171875 C 1.203125 -12.367188 1.296875 -13.445312 1.484375 -14.40625 C 1.671875 -15.363281 1.957031 -16.285156 2.34375 -17.171875 C 3.175781 -19.046875 4.441406 -20.539062 6.140625 -21.65625 C 7.835938 -22.78125 9.925781 -23.34375 12.40625 -23.34375 C 14.882812 -23.34375 16.945312 -22.726562 18.59375 -21.5 C 20.25 -20.269531 21.078125 -18.769531 21.078125 -17 C 21.078125 -15.789062 20.59375 -14.976562 19.625 -14.5625 C 19.332031 -14.425781 19.015625 -14.359375 18.671875 -14.359375 C 18.015625 -14.359375 17.484375 -14.5625 17.078125 -14.96875 C 16.671875 -15.382812 16.46875 -15.863281 16.46875 -16.40625 C 16.46875 -17.488281 16.898438 -18.234375 17.765625 -18.640625 C 17.359375 -19.503906 16.660156 -20.179688 15.671875 -20.671875 C 14.691406 -21.171875 13.6875 -21.421875 12.65625 -21.421875 C 10.476562 -21.421875 8.695312 -20.609375 7.3125 -18.984375 C 5.9375 -17.359375 5.25 -14.914062 5.25 -11.65625 C 5.25 -8.40625 5.960938 -5.929688 7.390625 -4.234375 C 8.828125 -2.535156 10.570312 -1.6875 12.625 -1.6875 C 14.289062 -1.6875 15.582031 -2.101562 16.5 -2.9375 C 17.414062 -3.78125 17.875 -4.707031 17.875 -5.71875 C 17.875 -6.726562 17.644531 -7.363281 17.1875 -7.625 C 16.726562 -7.882812 15.671875 -8.015625 14.015625 -8.015625 L 14.015625 -10.0625 L 21.0625 -10.0625 L 21.0625 0 L 19 0 L 18.421875 -1.84375 C 17.546875 -0.914062 16.1875 -0.269531 14.34375 0.09375 C 13.664062 0.238281 12.894531 0.3125 12.03125 0.3125 C 11.175781 0.3125 10.304688 0.210938 9.421875 0.015625 C 8.535156 -0.171875 7.6875 -0.460938 6.875 -0.859375 C 6.070312 -1.253906 5.320312 -1.765625 4.625 -2.390625 C 3.9375 -3.015625 3.335938 -3.765625 2.828125 -4.640625 Z M 2.828125 -4.640625 "/></g></g></g></svg>