<svg xmlns="http://www.w3.org/2000/svg" xmlns:xlink="http://www.w3.org/1999/xlink" width="500" zoomAndPan="magnify" viewBox="0 0 375 374.999991" height="500" preserveAspectRatio="xMidYMid meet" version="1.0"><defs><clipPath id="id1"><path d="M 16 8.355469 L 329 8.355469 L 329 366 L 16 366 Z M 16 8.355469 " clip-rule="nonzero"/></clipPath></defs><g clip-path="url(#id1)"><path fill="rgb(0%, 29.019165%, 67.83905%)" d="M 281.871094 30.597656 C 281.769531 30.542969 278.777344 28.925781 278.679688 28.882812 L 281.871094 30.597656 C 265.261719 21.207031 251.570312 15.246094 232.691406 12.53125 L 234.785156 13.074219 C 222.0625 9.683594 208.136719 8.3125 195.136719 8.199219 C 195.15625 8.199219 195.175781 8.199219 195.191406 8.207031 C 195.179688 8.207031 195.148438 8.207031 195.136719 8.199219 C 195.921875 8.34375 196.058594 8.367188 196.886719 8.515625 C 196.757812 12.371094 196.726562 13.175781 163.21875 36.742188 C 156.660156 41.351562 150.136719 45.996094 143.679688 50.683594 C 141.417969 44.414062 140.132812 37.414062 141.929688 30.988281 C 157.964844 22.738281 178.722656 13.492188 195.132812 8.199219 C 195.132812 8.199219 195.125 8.199219 195.125 8.199219 C 195.125 8.199219 195.136719 8.199219 195.136719 8.199219 C 193.363281 8.257812 192.101562 8.320312 191.464844 8.355469 C 188.742188 8.53125 192.324219 8.3125 195.097656 8.207031 C 186.394531 8.863281 167.472656 14.386719 145.101562 24.394531 C 145.101562 24.386719 145.109375 24.386719 145.109375 24.382812 C 148.570312 19.605469 154.378906 15.667969 163.144531 12.855469 C 173.980469 10.300781 183.308594 8.964844 190.160156 8.445312 C 160.464844 10.300781 130.589844 19.351562 104.664062 33.730469 C 86.519531 43.789062 72.304688 55.066406 57.75 72.503906 C 57.773438 72.480469 57.789062 72.457031 57.8125 72.433594 C 57.796875 72.457031 57.773438 72.480469 57.753906 72.503906 C 49.796875 82.800781 44.210938 93.007812 40.707031 103.164062 C 33.492188 113.300781 27.636719 124.183594 23.722656 135.792969 C 14.507812 166.648438 15.671875 187.65625 21.148438 206.15625 C 20.246094 219.777344 22.261719 234.117188 25.394531 243.527344 C 28.347656 252.40625 32.085938 261.21875 36.460938 269.601562 C 36.460938 269.601562 36.460938 269.59375 36.453125 269.59375 C 37.546875 271.261719 43.394531 283.59375 58.976562 299.339844 C 66.660156 312.335938 77.375 322.433594 89.503906 331.324219 C 94.914062 335.285156 100.558594 338.957031 106.402344 342.304688 C 106.347656 342.269531 106.292969 342.238281 106.246094 342.203125 C 128.710938 355.0625 151.257812 361.089844 176.503906 364.453125 C 182.753906 365.359375 190.90625 365.820312 195.132812 365.820312 C 194.71875 365.804688 194.296875 365.773438 193.863281 365.734375 C 194.003906 365.75 194.152344 365.761719 194.296875 365.78125 C 182.234375 365.265625 173.429688 363.457031 167.269531 360.644531 L 167.257812 360.644531 C 158.429688 356.640625 154.1875 350.175781 155.597656 340.796875 C 169.074219 348.667969 182.496094 356.617188 195.132812 365.820312 C 195.132812 365.820312 195.132812 365.820312 195.136719 365.820312 C 195.144531 365.820312 195.144531 365.820312 195.148438 365.820312 C 195.160156 365.820312 195.175781 365.820312 195.1875 365.820312 C 195.085938 365.828125 217.679688 366.171875 235.128906 361.335938 C 235.554688 361.335938 245.007812 359.042969 253.902344 355.945312 C 341.183594 323.773438 317.824219 260.449219 275.09375 204.527344 C 326.660156 144.910156 361.160156 76.347656 281.871094 30.597656 Z M 207 8.847656 C 314.507812 17.476562 250.894531 95.429688 212.671875 135.792969 C 178.203125 101.492188 185.507812 108.289062 179.433594 101.984375 C 210.582031 72.183594 268.539062 15.382812 206.707031 8.824219 C 206.714844 8.824219 207 8.847656 207 8.847656 Z M 212.433594 241.296875 C 207.152344 235.535156 201.46875 229.570312 195.394531 223.414062 C 189.792969 217.730469 183.621094 211.484375 177.171875 204.804688 C 184.546875 196.773438 191.574219 189.429688 197.617188 183.109375 C 203.042969 177.4375 208.257812 171.945312 213.257812 166.617188 C 224.734375 178.523438 236.734375 191.460938 248.015625 204.828125 C 235.910156 217.96875 223.59375 230.292969 212.433594 241.296875 Z M 111.753906 300.460938 C 112.226562 299.265625 114.832031 288.378906 126.011719 269.886719 C 136.457031 279.714844 147.445312 289.667969 158.753906 299.757812 C 157.242188 302.082031 148.816406 313.191406 144.632812 325.269531 C 132.980469 316.875 122 308.625 111.753906 300.460938 Z M 97.488281 324.804688 C 79.421875 312.929688 69.773438 303.554688 66.964844 301.210938 C 62.488281 291.269531 60.746094 280.894531 61.273438 270.207031 C 67.871094 277.128906 78.632812 287.632812 94.546875 300.355469 C 94.535156 302.003906 92.636719 312.972656 97.488281 324.804688 Z M 48.523438 101.972656 C 57.59375 90.925781 67.984375 80.859375 78.960938 71.78125 C 78.871094 73.867188 76.230469 84.027344 80.769531 101.703125 C 69.082031 112.800781 58.5625 124.21875 49.722656 136.046875 C 47.015625 124.535156 46.464844 113.15625 48.523438 101.972656 Z M 153.699219 101.734375 C 142.960938 111.652344 130.808594 123.125 118.675781 135.6875 C 105.179688 115.941406 100.003906 102.652344 99.691406 102.03125 C 110.773438 91.738281 122.515625 81.710938 134.484375 71.945312 C 135.496094 73.695312 140.03125 83.898438 153.699219 101.734375 Z M 191.90625 144.789062 C 193.878906 146.785156 195.902344 148.84375 197.96875 150.9375 C 187.5625 161.511719 174.871094 174.476562 161.996094 188.753906 C 142.375 167.480469 130.210938 151.488281 130.121094 151.378906 C 141.230469 139.429688 153.054688 127.53125 165.097656 115.796875 C 167.210938 118.164062 175.566406 128.242188 191.90625 144.789062 Z M 119.871094 241.667969 C 107.859375 229.355469 96.71875 217.019531 86.945312 204.722656 C 95.199219 192.289062 105.046875 179.726562 115.9375 167.164062 C 116.445312 167.792969 127.054688 182.457031 147.832031 204.9375 C 137.824219 216.800781 128.15625 229.207031 119.871094 241.667969 Z M 85.433594 115.820312 C 85.996094 117 90.582031 130.109375 104.429688 150.996094 C 104.429688 150.996094 104.429688 151 104.4375 151 C 93.804688 162.929688 83.636719 175.574219 74.953125 188.613281 C 66.394531 176.234375 59.464844 163.917969 54.675781 151.730469 C 63.460938 139.441406 73.917969 127.472656 85.433594 115.820312 Z M 65.445312 204.199219 C 58.679688 216.4375 53.519531 228.886719 50.753906 241.308594 C 41.574219 229.46875 34.332031 217.535156 29.226562 205.328125 C 32.050781 192.523438 37.25 180.011719 44.28125 167.8125 C 49.3125 179.886719 56.519531 191.992188 65.445312 204.199219 Z M 63.21875 256.070312 C 65.828125 244.261719 70.855469 232.132812 77.714844 219.816406 C 87.609375 231.632812 98.902344 243.550781 111.183594 255.632812 C 100.183594 274.761719 97.910156 285.5625 96.925781 288.25 C 84.265625 277.460938 72.980469 266.777344 63.21875 256.070312 Z M 168.046875 287.734375 C 156.667969 277.378906 145.460938 266.949219 134.71875 256.5 C 143.222656 244.25 153.035156 232.121094 162.851562 220.796875 C 171.484375 229.671875 179.628906 237.703125 186.601562 244.570312 C 189.964844 247.890625 193.769531 251.640625 197.785156 255.703125 C 188.882812 264.535156 177.902344 275.792969 168.046875 287.734375 Z M 195.160156 8.199219 C 195.191406 8.199219 195.222656 8.199219 195.25 8.207031 C 250.898438 10.734375 212.148438 48.089844 167.832031 88.761719 C 160.097656 79.472656 153.15625 69.953125 148.277344 60.867188 C 188.363281 29.109375 215.546875 9.992188 195.160156 8.199219 Z M 129.8125 60.90625 C 117.691406 70.023438 105.972656 79.3125 94.992188 88.828125 C 94.503906 86.28125 90.523438 74.460938 92.84375 60.992188 C 104.269531 52.644531 115.984375 45.296875 127.203125 38.9375 C 126.085938 45.285156 126.953125 52.605469 129.8125 60.90625 Z M 141.964844 18.949219 C 136.101562 22.414062 131.933594 26.722656 129.457031 31.871094 C 118.292969 37.566406 106.699219 44.257812 95.394531 51.898438 C 96.207031 50.445312 98.894531 41.730469 109.996094 32.648438 C 120.90625 26.921875 131.746094 22.4375 141.964844 18.949219 Z M 69.484375 60.789062 C 78.09375 52.964844 87.160156 46.238281 96.363281 40.484375 C 89.390625 47.023438 84.613281 54.164062 81.714844 61.761719 C 71.105469 69.917969 61.054688 78.945312 52.199219 88.828125 C 55.796875 79.320312 61.460938 69.964844 69.484375 60.789062 Z M 21.023438 151.523438 C 24.75 139.417969 30.285156 128.085938 37.117188 117.523438 C 35.308594 129.066406 36.058594 140.554688 38.96875 152.050781 C 31.933594 163.890625 26.695312 176.144531 23.714844 188.875 C 20.660156 176.796875 19.703125 164.398438 21.023438 151.523438 Z M 31.210938 255.824219 C 27.648438 244.21875 26.351562 232.832031 26.96875 221.664062 C 31.726562 232.121094 38.648438 243.617188 48.640625 255.917969 C 47.988281 266.515625 49.328125 277.023438 53.175781 287.253906 C 51.292969 284.90625 40.453125 273.546875 31.210938 255.824219 Z M 115.230469 345.851562 C 108.714844 342.675781 102.046875 339.003906 95.359375 334.757812 C 85.890625 327.617188 78.59375 320.101562 73.214844 312.285156 C 81.984375 319.472656 91.457031 326.003906 101.191406 331.839844 C 104.898438 337.535156 110.875 343.105469 115.230469 345.851562 Z M 172.941406 363.894531 C 148.050781 360.082031 131.066406 352.625 129.742188 352.210938 C 123.496094 348.648438 118.820312 344.492188 115.496094 339.847656 C 127.488281 346.113281 139.550781 351.320312 150.886719 355.394531 C 155.785156 359.191406 162.96875 362.109375 172.941406 363.894531 Z M 146.347656 350.828125 C 135.558594 346.242188 123.839844 340.558594 111.996094 333.746094 C 109.042969 327.078125 108.316406 319.632812 109.324219 311.683594 C 109.324219 311.683594 109.324219 311.679688 109.324219 311.679688 C 120.183594 319.644531 130.953125 326.292969 142.640625 333.203125 C 142.640625 334.679688 140.605469 343.082031 146.347656 350.828125 Z M 157.324219 334.277344 C 161.230469 323.671875 169.667969 313.582031 171.476562 311.066406 C 197.15625 333.828125 231.277344 362.566406 197.257812 365.660156 C 196.210938 362.085938 177.949219 348.734375 157.324219 334.277344 Z M 195.148438 365.816406 C 195.394531 365.722656 195.703125 365.734375 196.015625 365.761719 C 195.773438 365.773438 195.304688 365.808594 195.148438 365.816406 Z M 196.105469 365.769531 C 196.136719 365.769531 196.164062 365.773438 196.195312 365.773438 C 195.1875 365.832031 194.953125 365.828125 196.105469 365.769531 Z M 197.285156 365.738281 C 197.285156 365.726562 197.28125 365.722656 197.273438 365.710938 C 245.046875 362.796875 212.683594 328.769531 181.175781 299.710938 C 183.347656 297.492188 186.863281 292.9375 208.589844 272.234375 C 209.46875 271.398438 210.34375 270.5625 211.242188 269.707031 C 247.253906 308.667969 283.601562 361.988281 197.285156 365.738281 Z M 240.101562 359.785156 C 277.605469 346.609375 272.726562 311.894531 225.480469 256.078125 C 236.957031 244.984375 249.03125 233.027344 260.699219 220.507812 C 303.964844 276.511719 326.601562 336.257812 240.101562 359.785156 Z M 227.730469 150.925781 C 260.902344 114.167969 281.1875 85.0625 280.785156 56.785156 C 280.535156 39.363281 266.246094 21.722656 235.667969 13.300781 C 247.363281 16.464844 251.25 17.054688 257.8125 19.628906 C 262.894531 21.699219 270.449219 24.671875 277.261719 28.117188 C 277.105469 28.046875 276.957031 27.96875 276.804688 27.90625 C 276.804688 27.90625 276.804688 27.894531 276.792969 27.894531 C 271.390625 25.382812 264.640625 22.414062 258.613281 19.957031 C 350.238281 57.941406 313.546875 128.9375 262.363281 188.714844 C 251.003906 175.226562 238.992188 162.429688 227.730469 150.925781 Z M 227.730469 150.925781 " fill-opacity="1" fill-rule="nonzero"/></g></svg>